# xmcd
#
# Track frame offsets: 
#        150
#        3433
#        18877
#        33407
#        45923
#        61159
#        73562
#        77061
#        89539
#        101369
#        111327
#        125975
#        141601
#        170723
#        190187
#        211315
#
# Disc length: 3039 seconds
#
# Revision: 0
# Processed by: cddbd v1.5.2PL0 Copyright (c) Steve Scherf et al.
# Submitted via: ExactAudioCopy v0.99pb3
#
DISCID=dd0bdd10
DTITLE=Opie Hendrix - San Jacinto
DYEAR=2003
DGENRE=Country
TTITLE0=Intro: Tom Petty
TTITLE1=Can't Even Yodel
TTITLE2=Little Party
TTITLE3=Golfing and Gravy
TTITLE4=Beautiful and True
TTITLE5=You and Me
TTITLE6=Suddenly Susan
TTITLE7=Mr. Blue
TTITLE8=Texas Love
TTITLE9=My Favorite Waitress
TTITLE10=Two Swinging Doors
TTITLE11=You Don't Care (Slight Return)
TTITLE12=Shoulda Known Better
TTITLE13=Things Gotta Change
TTITLE14=It's My Life
TTITLE15=If I Had A Girl Like You (I'd Shoot Myself)
EXTD=
EXTT0=
EXTT1=
EXTT2=
EXTT3=
EXTT4=
EXTT5=
EXTT6=
EXTT7=
EXTT8=
EXTT9=
EXTT10=
EXTT11=
EXTT12=
EXTT13=
EXTT14=
EXTT15=
PLAYORDER=
